<svg width="31" height="30" viewBox="0 0 31 30" fill="none" xmlns="http://www.w3.org/2000/svg">
<path fill-rule="evenodd" clip-rule="evenodd" d="M29.4879 3.44C29.6625 3.26206 29.801 3.05077 29.8956 2.81819C29.9901 2.58562 30.0389 2.33631 30.0391 2.08451C30.0392 1.83271 29.9908 1.58334 29.8965 1.35065C29.8022 1.11796 29.6639 0.906493 29.4895 0.728333C29.3151 0.550173 29.1081 0.408806 28.8801 0.312303C28.6522 0.215799 28.4079 0.16605 28.1611 0.165895C27.9144 0.165741 27.67 0.215183 27.4419 0.311401C27.2139 0.407618 27.0067 0.548725 26.8321 0.726666L15.5 12.29L4.1712 0.726666C3.81859 0.366856 3.34034 0.164717 2.84167 0.164717C2.343 0.164717 1.86475 0.366856 1.51213 0.726666C1.15952 1.08648 0.961423 1.57448 0.961423 2.08333C0.961423 2.59218 1.15952 3.08019 1.51213 3.44L12.8442 15L1.51213 26.56C1.33754 26.7382 1.19904 26.9497 1.10455 27.1824C1.01006 27.4152 0.961423 27.6647 0.961423 27.9167C0.961423 28.1686 1.01006 28.4181 1.10455 28.6509C1.19904 28.8837 1.33754 29.0952 1.51213 29.2733C1.86475 29.6331 2.343 29.8353 2.84167 29.8353C3.08858 29.8353 3.33308 29.7857 3.56121 29.6892C3.78933 29.5928 3.9966 29.4515 4.1712 29.2733L15.5 17.71L26.8321 29.2733C27.1847 29.6327 27.6628 29.8344 28.1611 29.8341C28.6595 29.8338 29.1373 29.6315 29.4895 29.2717C29.8417 28.9119 30.0394 28.424 30.0391 27.9155C30.0387 27.407 29.8405 26.9194 29.4879 26.56L18.1558 15L29.4879 3.44Z" fill="white"/>
</svg>
